<svg width="560" height="320" viewBox="0 0 560 320" fill="none" xmlns="http://www.w3.org/2000/svg">
  <rect width="560" height="320" rx="22" fill="#FAFCFF"/>
  <rect x="86" y="86" width="142" height="164" rx="18" fill="#E8F0FF" stroke="#B5CAE9"/>
  <circle cx="157" cy="130" r="30" fill="#FFEDAA"/>
  <path d="M145 120h24M145 140h24" stroke="#4B5D75" stroke-linecap="round"/>
  <path d="M157 150c0 9-7 16-16 16H130c-9 0-16 7-16 16s7 16 16 16h6" stroke="#7FA7DE" stroke-width="4" stroke-linecap="round"/>
  <path d="M286 108c58 0 105 30 105 80 0 41-24 64-52 90H286" stroke="#D0DAED" stroke-width="26" stroke-linecap="round"/>
  <path d="M286 108H152" stroke="#D0DAED" stroke-width="26" stroke-linecap="round"/>
  <path d="M286 188c40 0 70-9 70-56" stroke="#B7C9E5" stroke-width="26" stroke-linecap="round"/>
  <circle cx="420" cy="88" r="22" fill="#FFE4EC"/>
  <circle cx="420" cy="142" r="18" fill="#D8F3DD"/>
  <circle cx="420" cy="190" r="14" fill="#DDEBFF"/>
  <path d="M388 190h62" stroke="#5F8FD8" stroke-linecap="round"/>
  <path d="M388 208h62" stroke="#5F8FD8" stroke-linecap="round"/>
</svg>
