<svg width="560" height="320" viewBox="0 0 560 320" fill="none" xmlns="http://www.w3.org/2000/svg">
  <rect width="560" height="320" rx="22" fill="#F8FAFF"/>
  <path d="M68 246h424" stroke="#C7D4EA" stroke-width="8" stroke-linecap="round"/>
  <path d="M80 236V70h120" stroke="#93B0ED" stroke-width="4" stroke-dasharray="8 8"/>
  <path d="M84 236S150 150 228 140 338 94 430 80" fill="none" stroke="#3B82F6" stroke-width="6" stroke-linecap="round"/>
  <circle cx="84" cy="236" r="7" fill="#2463EB"/>
  <circle cx="150" cy="150" r="7" fill="#2463EB"/>
  <circle cx="228" cy="140" r="7" fill="#2463EB"/>
  <circle cx="338" cy="94" r="7" fill="#2463EB"/>
  <circle cx="430" cy="80" r="7" fill="#2463EB"/>
  <rect x="60" y="38" width="155" height="88" rx="16" fill="#EAF3FF" stroke="#A9C2EF"/>
  <path d="M87 71h101M87 92h90" stroke="#7BA3F3" stroke-width="8" stroke-linecap="round"/>
  <rect x="315" y="200" width="180" height="102" rx="16" fill="#EAFBF2" stroke="#A9D7C0"/>
  <path d="M344 238h122M344 259h122" stroke="#55B892" stroke-width="8" stroke-linecap="round"/>
  <path d="M344 280h70" stroke="#55B892" stroke-width="8" stroke-linecap="round"/>
  <circle cx="440" cy="60" r="24" fill="#FFE3A5"/>
  <path d="M432 60h16" stroke="#1D4ED8" stroke-width="4" stroke-linecap="round"/>
  <path d="M440 52v16" stroke="#1D4ED8" stroke-width="4" stroke-linecap="round"/>
</svg>
